<?xml version="1.0" encoding="UTF-8"?>
<svg width="128" height="128" version="1.1" viewBox="0 0 128 128" xmlns="http://www.w3.org/2000/svg">
 <rect y="0" width="128" height="128" fill="#1f1f1f"/>
 <path d="m16.483 30.442v-2.0257l-6.3252-2.4391-0.54777-0.18604 0.54777-0.1757 6.3252-2.4805v-2.0257l-8.7643 3.9067v1.509zm9.3121-2.8422v-10.18h-1.9224v10.18zm-2.1084 3.8654q0 0.47542 0.28939 0.79582 0.29972 0.32039 0.88884 0.32039t0.88884-0.32039q0.31006-0.3204 0.31006-0.79582 0-0.49609-0.31006-0.82682-0.29972-0.33073-0.88884-0.33073t-0.88884 0.33073q-0.28939 0.33073-0.28939 0.82682zm17.839-4.7956v-1.571h-7.9065v1.571zm12.702 0v-1.571h-7.9065v1.571zm25.766 3.7724v-2.0257l-6.3252-2.4391-0.54777-0.18604 0.54777-0.1757 6.3252-2.4805v-2.0257l-8.7643 3.9067v1.509zm9.3121-2.8422v-10.18h-1.9224v10.18zm-2.1084 3.8654q0 0.47542 0.28939 0.79582 0.29972 0.32039 0.88884 0.32039t0.88884-0.32039q0.31006-0.3204 0.31006-0.79582 0-0.49609-0.31006-0.82682-0.29972-0.33073-0.88884-0.33073t-0.88884 0.33073q-0.28939 0.33073-0.28939 0.82682zm19.875-6.6456-1.3849-0.18604q0 0.39274-0.13435 0.75448-0.13436 0.36174-0.36174 0.63045-0.23771 0.27905-0.55811 0.44442-0.31006 0.16536-0.67179 0.16536-0.31006 0.01034-0.59945-0.06201-0.28939-0.08268-0.56844-0.23771-0.23771-0.12402-0.48576-0.29972-0.24805-0.18604-0.51676-0.41341-0.40308-0.33073-0.79582-0.59945-0.38241-0.26872-0.78549-0.45475-0.40307-0.18604-0.83716-0.27905-0.42375-0.10335-0.89917-0.10335-0.69246 0-1.2609 0.27905-0.56844 0.26872-0.97152 0.73381-0.41341 0.46509-0.64079 1.0852-0.22738 0.62012-0.22738 1.3022l1.3849 0.1757q0-0.39274 0.13436-0.73381 0.13436-0.3514 0.36174-0.60978 0.22738-0.24805 0.53744-0.39274 0.32039-0.15503 0.68213-0.15503 0.23771 0 0.45475 0.04134 0.22738 0.04134 0.44442 0.13436 0.31006 0.12402 0.62012 0.34106 0.3204 0.20671 0.66146 0.48576 0.41341 0.3514 0.79582 0.62012 0.39274 0.26872 0.79582 0.45475 0.39274 0.18604 0.80615 0.27905 0.42375 0.09302 0.90951 0.09302 0.69246 0 1.2609-0.28939 0.56844-0.28939 0.98185-0.77515 0.41341-0.48576 0.64079-1.1162 0.22738-0.63045 0.22738-1.3126zm12.702 0-1.3849-0.18604q0 0.39274-0.13436 0.75448-0.13436 0.36174-0.36173 0.63045-0.23771 0.27905-0.55811 0.44442-0.31006 0.16536-0.67179 0.16536-0.31006 0.01034-0.59945-0.06201-0.28939-0.08268-0.56844-0.23771-0.23771-0.12402-0.48576-0.29972-0.24805-0.18604-0.51677-0.41341-0.40307-0.33073-0.79582-0.59945-0.3824-0.26872-0.78548-0.45475-0.40308-0.18604-0.83716-0.27905-0.42375-0.10335-0.89917-0.10335-0.69246 0-1.2609 0.27905-0.56844 0.26872-0.97152 0.73381-0.41341 0.46509-0.64078 1.0852-0.22738 0.62012-0.22738 1.3022l1.3849 0.1757q0-0.39274 0.13436-0.73381 0.13436-0.3514 0.36173-0.60978 0.22738-0.24805 0.53744-0.39274 0.32039-0.15503 0.68213-0.15503 0.23771 0 0.45475 0.04134 0.22738 0.04134 0.44442 0.13436 0.31006 0.12402 0.62012 0.34106 0.32039 0.20671 0.66146 0.48576 0.41341 0.3514 0.79582 0.62012 0.39274 0.26872 0.79582 0.45475 0.39274 0.18604 0.80615 0.27905 0.42375 0.09302 0.90951 0.09302 0.69246 0 1.2609-0.28939 0.56844-0.28939 0.98186-0.77515 0.41341-0.48576 0.64079-1.1162 0.22737-0.63045 0.22737-1.3126z" fill="#6a9955" stroke-width=".5609"/>
 <path d="m19.894 49.377-3.2039-5.9015h-2.2428l4.3718 7.4621-4.4855 7.5861h2.2634l3.3383-6.0151 3.328 6.0151h2.2324l-4.4752-7.5861 4.3718-7.4621h-2.2531zm10.139-5.9015h-2.3668v15.048h1.8604v-6.0048l-0.15503-6.0668 2.5528 7.8858h1.0955l2.7802-8.1029-0.15503 6.2839v6.0048h1.8604v-15.048h-2.3771l-2.6458 7.5241zm12.764 13.426v-13.426h-1.912v15.048h9.2708v-1.6226z" fill="#569cd6" stroke-width=".5609"/>
 <path d="m75.477 58.524v-15.048h-1.8087v6.4699h-6.1702v-6.4699h-1.7983v15.048h1.7983v-6.9557h6.1702v6.9557zm13.415-13.415v-1.633h-11.162v1.633h4.6509v13.415h1.8604v-13.415zm4.6509-1.633h-2.3668v15.048h1.8604v-6.0048l-0.15503-6.0668 2.5528 7.8858h1.0955l2.7802-8.1029-0.15503 6.2839v6.0048h1.8604v-15.048h-2.3771l-2.6458 7.5241zm12.764 13.426v-13.426h-1.912v15.048h9.2708v-1.6226z" fill="#ce9178" stroke-width=".5609"/>
 <path d="m17.171 69.786h-2.3668v15.048h1.8604v-6.0048l-0.15503-6.0668 2.5528 7.8858h1.0955l2.7802-8.1029-0.15503 6.2839v6.0048h1.8604v-15.048h-2.3771l-2.6458 7.5241zm17.952 15.048h1.9947v-0.16536q-0.18604-0.46509-0.28939-1.0852-0.10335-0.63045-0.10335-1.1886v-5.1987q0-0.94051-0.34106-1.6433-0.34106-0.7028-0.93018-1.1782-0.59945-0.46509-1.4159-0.69246-0.81649-0.23771-1.7673-0.23771-1.0439 0-1.8707 0.28939-0.81649 0.28939-1.3849 0.75448-0.57878 0.47542-0.88884 1.0645-0.29972 0.58911-0.31006 1.1989h1.9224q0-0.3514 0.16536-0.6718 0.1757-0.33073 0.48576-0.56844t0.75448-0.38241q0.45475-0.14469 1.0232-0.14469 0.60978 0 1.0955 0.15503 0.49609 0.15503 0.83716 0.43408 0.34106 0.28939 0.5271 0.69247 0.18604 0.40308 0.18604 0.90951v0.8785h-2.0877q-1.1679 0-2.1187 0.22738-0.94051 0.22738-1.6123 0.68213-0.6718 0.46509-1.0439 1.1576-0.36174 0.69246-0.36174 1.6123 0 0.7028 0.26872 1.3126 0.27905 0.59945 0.78548 1.0335 0.49609 0.44442 1.2092 0.7028 0.72347 0.25838 1.6123 0.25838 0.54777 0 1.0335-0.11369 0.48576-0.11369 0.91984-0.31006 0.42375-0.19637 0.77515-0.45475 0.36174-0.25838 0.65112-0.54777 0.03101 0.3514 0.09302 0.68213 0.07235 0.32039 0.18604 0.53744zm-3.3796-1.4573q-0.55811 0-0.98185-0.14469-0.42375-0.14469-0.7028-0.40308-0.27905-0.24805-0.42375-0.59945-0.13436-0.3514-0.13436-0.76481 0-0.43408 0.15503-0.77515 0.16536-0.34106 0.47542-0.58911 0.43408-0.3514 1.1679-0.51676 0.74414-0.1757 1.7363-0.1757h1.7777v2.2634q-0.16536 0.33073-0.45475 0.64079-0.28939 0.29972-0.68213 0.53744-0.40308 0.23771-0.88884 0.38241t-1.0439 0.14469zm16.061-9.9322q-1.2196 0-2.1807 0.53744-0.95085 0.5271-1.633 1.4469l-0.01034-0.27905-0.08268-1.4986h-1.819v11.183h1.9224v-7.1727q0.18604-0.51677 0.46509-0.93018 0.28939-0.42375 0.6718-0.71314 0.42375-0.33073 0.99219-0.49609 0.56844-0.1757 1.2712-0.1757 0.54777 0 1.0439 0.06201 0.50643 0.05168 1.0645 0.1757l0.25838-1.8707q-0.28939-0.12402-0.86817-0.19637-0.56844-0.07235-1.0955-0.07235zm8.723 6.1702 4.1031 5.2193h2.4288l-5.2193-6.5216 4.5269-4.6612h-2.3254l-3.669 3.6794-1.2506 1.3436v-9.7152h-1.9224v15.875h1.9224v-3.8654zm8.9917-0.46509v0.21704q0 1.1989 0.32039 2.2428 0.32039 1.0335 0.89917 1.7983t1.3953 1.1989q0.82682 0.43408 1.8397 0.43408 1.0335 0 1.8087-0.3514 0.77515-0.3514 1.3333-1.0335l0.08268 1.1782h1.757v-15.875h-1.912v5.7981q-0.54777-0.64079-1.3022-0.97152-0.74414-0.34106-1.7467-0.34106-1.0232 0-1.85 0.42375-0.82682 0.42375-1.4056 1.1782-0.58911 0.75448-0.90951 1.8087-0.31006 1.0439-0.31006 2.2944zm1.912 0.21704v-0.21704q0-0.81649 0.1757-1.5503 0.1757-0.74414 0.54777-1.3126 0.36174-0.55811 0.93018-0.88884 0.57878-0.33073 1.3849-0.33073 0.94051 0 1.571 0.44442 0.63045 0.43408 1.0025 1.1162v5.1883q-0.37207 0.73381-1.0025 1.1679-0.63045 0.43408-1.5916 0.43408-0.79582 0-1.3643-0.32039-0.56844-0.33073-0.93018-0.88884-0.37207-0.55811-0.54777-1.2919-0.1757-0.73381-0.1757-1.5503zm10.614-0.22738v0.22738q0 1.2092 0.3514 2.2428 0.3514 1.0335 1.0129 1.7983 0.65112 0.76481 1.5916 1.1989 0.95085 0.43408 2.1394 0.43408 1.1782 0 2.1187-0.43408 0.94051-0.43408 1.602-1.1989 0.65112-0.76481 1.0025-1.7983 0.3514-1.0335 0.3514-2.2428v-0.22738q0-1.2092-0.3514-2.2428-0.3514-1.0439-1.0025-1.8087-0.66146-0.76481-1.6123-1.1989-0.94051-0.44442-2.1291-0.44442-1.1782 0-2.1187 0.44442-0.94051 0.43408-1.5916 1.1989-0.66146 0.76481-1.0129 1.8087-0.3514 1.0335-0.3514 2.2428zm1.912 0.22738v-0.22738q0-0.81649 0.19637-1.5606 0.19637-0.75448 0.59945-1.3229 0.39274-0.56844 0.98185-0.89917 0.58911-0.34106 1.3849-0.34106 0.79582 0 1.3849 0.34106 0.59945 0.33073 1.0025 0.89917 0.39274 0.56844 0.58911 1.3229 0.20671 0.74414 0.20671 1.5606v0.22738q0 0.82682-0.19637 1.5813-0.19637 0.74414-0.58911 1.3126-0.40308 0.56844-1.0025 0.89917-0.58911 0.33073-1.3746 0.33073-0.79582 0-1.3953-0.33073-0.59945-0.33073-0.99219-0.89917-0.40308-0.56844-0.59945-1.3126-0.19637-0.75448-0.19637-1.5813zm12.402 5.4674h1.509l1.726-6.8523 0.27905-1.7363 0.28939 1.7363 1.7467 6.8523h1.509l2.3771-11.183h-1.695l-1.2402 7.1314-0.27905 1.757-0.29972-1.757-1.7777-7.1314h-1.2299l-1.788 7.1314-0.27905 1.602-0.22738-1.602-1.3022-7.1314h-1.695zm11.627 0h1.912v-8.0202q0.19637-0.36174 0.45475-0.66146 0.26872-0.29972 0.57878-0.5271 0.38241-0.25838 0.83716-0.40308 0.45475-0.15503 0.98185-0.15503 0.60979 0 1.0749 0.14469 0.47543 0.14469 0.80616 0.46509 0.32039 0.3204 0.48576 0.83716 0.16536 0.51676 0.16536 1.2609v7.059h1.912v-7.1004q0-1.1162-0.27905-1.9224-0.26872-0.81649-0.77515-1.3436t-1.2299-0.77515q-0.71314-0.24805-1.5916-0.24805-0.65112 0.01034-1.2402 0.19637-0.57878 0.1757-1.0749 0.50643-0.33073 0.21704-0.63046 0.51676-0.28939 0.28939-0.53743 0.64079l-0.13436-1.6536h-1.7157z" fill="#ccc" stroke-width=".5609"/>
 <path d="m32.358 101.04-1.3849-0.18603q0 0.39274-0.13436 0.75448-0.13436 0.36173-0.36174 0.63045-0.23771 0.27905-0.55811 0.44442-0.31006 0.16536-0.67179 0.16536-0.31006 0.0103-0.59945-0.062-0.28939-0.0827-0.56844-0.23771-0.23771-0.12403-0.48576-0.29973-0.24805-0.18603-0.51676-0.41341-0.40308-0.33073-0.79582-0.59945-0.38241-0.26871-0.78548-0.45475-0.40308-0.18603-0.83716-0.27905-0.42375-0.10336-0.89917-0.10336-0.69247 0-1.2609 0.27906-0.56844 0.26872-0.97152 0.7338-0.41341 0.46509-0.64079 1.0852-0.22738 0.62012-0.22738 1.3022l1.3849 0.1757q0-0.39274 0.13436-0.73381 0.13436-0.3514 0.36174-0.60978 0.22738-0.24805 0.53744-0.39274 0.32039-0.15503 0.68213-0.15503 0.23771 0 0.45475 0.0413 0.22738 0.0413 0.44442 0.13436 0.31006 0.12402 0.62012 0.34106 0.3204 0.20671 0.66146 0.48576 0.41341 0.3514 0.79582 0.62012 0.39274 0.26872 0.79582 0.45476 0.39274 0.18603 0.80615 0.27905 0.42375 0.093 0.90951 0.093 0.69246 0 1.2609-0.28939 0.56844-0.28939 0.98185-0.77515t0.64079-1.1162q0.22738-0.63046 0.22738-1.3126zm12.702 0-1.3849-0.18603q0 0.39274-0.13436 0.75448-0.13436 0.36173-0.36174 0.63045-0.23771 0.27905-0.55811 0.44442-0.31006 0.16536-0.6718 0.16536-0.31006 0.0103-0.59945-0.062-0.28939-0.0827-0.56844-0.23771-0.23771-0.12403-0.48576-0.29973-0.24805-0.18603-0.51676-0.41341-0.40308-0.33073-0.79582-0.59945-0.38241-0.26871-0.78548-0.45475-0.40308-0.18603-0.83716-0.27905-0.42375-0.10336-0.89917-0.10336-0.69246 0-1.2609 0.27906-0.56844 0.26872-0.97152 0.7338-0.41341 0.46509-0.64079 1.0852t-0.22738 1.3022l1.3849 0.1757q0-0.39274 0.13436-0.73381 0.13436-0.3514 0.36174-0.60978 0.22738-0.24805 0.53744-0.39274 0.32039-0.15503 0.68213-0.15503 0.23771 0 0.45475 0.0413 0.22738 0.0413 0.44442 0.13436 0.31006 0.12402 0.62012 0.34106 0.32039 0.20671 0.66146 0.48576 0.41341 0.3514 0.79582 0.62012 0.39274 0.26872 0.79582 0.45476 0.39274 0.18603 0.80615 0.27905 0.42375 0.093 0.90951 0.093 0.69246 0 1.2609-0.28939t0.98185-0.77515 0.64079-1.1162q0.22738-0.63046 0.22738-1.3126zm2.3461 5.6121 9.1261-3.9171v-1.509l-9.1261-3.9067v1.974l6.6869 2.4805 0.62012 0.19637-0.62012 0.1757-6.6869 2.5218zm33.724-3.762v-1.571h-7.9065v1.571zm12.702 0v-1.571h-7.9065v1.571zm4.3822 3.762 9.1261-3.9171v-1.509l-9.1261-3.9067v1.974l6.6869 2.4805 0.62012 0.19637-0.62012 0.1757-6.6869 2.5218z" fill="#6a9955" stroke-width=".5609"/>
</svg>
